<?xml version="1.0" encoding="UTF-8"?>
<svg id="a" data-name="图层 1" xmlns="http://www.w3.org/2000/svg" width="100mm" height="100mm" viewBox="0 0 283.46 283.46">
  <polygon points="141.73 156.55 126.13 249.54 137.48 155.98 96.2 240.4 133.67 154.25 69.55 224.19 130.4 151.42 49.28 200.61 128.07 147.87 36.72 172.25 126.91 143.92 31.26 141.73 126.91 139.55 36.72 111.22 128.07 135.59 49.28 82.86 130.4 132.04 69.55 59.28 133.67 129.21 96.2 43.06 137.48 127.48 126.13 33.93 141.73 126.91 157.33 33.92 145.99 127.48 187.26 43.06 149.79 129.21 213.91 59.27 153.07 132.04 234.19 82.86 155.4 135.59 246.74 111.22 156.56 139.55 252.2 141.73 156.56 143.92 246.74 172.25 155.4 147.87 234.18 200.61 153.07 151.42 213.91 224.19 149.79 154.25 187.26 240.4 145.99 155.98 157.33 249.54 141.73 156.55" fill="#681218"/>
</svg>