<?xml version="1.0" encoding="UTF-8"?>
<svg id="a" data-name="图层 1" xmlns="http://www.w3.org/2000/svg" width="100mm" height="100mm" viewBox="0 0 283.46 283.46">
  <polygon points="100.94 147.58 31.18 141.74 100.94 135.88 35.64 110.9 104.23 124.79 48.74 82.52 110.58 115.03 69.32 59.01 119.48 107.38 95.78 42.15 130.1 102.57 126.04 33.36 141.73 100.93 157.43 33.36 153.36 102.57 187.68 42.15 163.99 107.38 214.14 59.01 172.88 115.03 234.72 82.52 179.24 124.79 247.83 110.9 182.52 135.88 252.28 141.74 182.52 147.58 247.83 172.56 179.24 158.67 234.73 200.94 172.89 168.44 214.14 224.46 163.99 176.08 187.69 241.31 153.36 180.9 157.43 250.1 141.73 182.53 126.04 250.1 130.1 180.9 95.78 241.31 119.48 176.08 69.32 224.46 110.58 168.44 48.74 200.94 104.23 158.67 35.64 172.56 100.94 147.58" fill="#9d2324"/>
</svg>