<?xml version="1.0" encoding="UTF-8"?>
<svg id="a" data-name="图层 1" xmlns="http://www.w3.org/2000/svg" width="100mm" height="100mm" viewBox="0 0 283.46 283.46">
  <polygon points="31.23 157.45 106.32 152.07 40.15 187.64 110.65 161.48 57.37 214.14 117.55 169.34 81.35 234.71 126.42 175 110.24 247.8 136.46 177.92 141.76 252.28 146.98 177.91 173.13 247.82 157.08 174.99 202.11 234.74 165.88 169.39 226.1 214.12 172.79 161.48 243.27 187.7 177.17 152.02 252.25 157.46 178.65 141.78 252.23 126.01 177.14 131.39 243.31 95.83 172.81 121.99 226.09 69.32 165.92 114.12 202.11 48.75 157.04 108.47 173.22 35.66 147.01 105.54 141.7 31.18 136.48 105.56 110.33 35.64 126.38 108.48 81.36 48.73 117.59 114.08 57.36 69.34 110.67 121.98 40.19 95.77 106.3 131.45 31.21 126 104.81 141.68 31.23 157.45" fill="#cc261c"/>
</svg>