<?xml version="1.0" encoding="UTF-8"?>
<svg id="a" data-name="图层 1" xmlns="http://www.w3.org/2000/svg" width="100mm" height="100mm" viewBox="0 0 283.46 283.46">
  <polygon points="141.73 127.19 157.34 35.96 145.99 127.75 187.3 44.93 149.8 129.45 213.96 60.84 153.08 132.23 234.25 83.97 155.41 135.71 246.82 111.8 156.57 139.59 252.28 141.73 156.57 143.88 246.82 171.67 155.41 147.76 234.25 199.5 153.08 151.24 213.96 222.63 149.8 154.02 187.3 238.54 145.99 155.71 157.34 247.5 141.73 156.27 126.12 247.51 137.48 155.71 96.17 238.53 133.67 154.01 69.5 222.63 130.39 151.24 49.21 199.5 128.06 147.76 36.65 171.67 126.9 143.88 31.18 141.73 126.9 139.59 36.65 111.8 128.06 135.71 49.21 83.97 130.39 132.23 69.5 60.83 133.67 129.45 96.17 44.93 137.48 127.75 126.12 35.96 141.73 127.19" fill="#cc261c"/>
</svg>