<?xml version="1.0" encoding="UTF-8"?>
<svg id="a" data-name="图层 1" xmlns="http://www.w3.org/2000/svg" width="100mm" height="100mm" viewBox="0 0 283.46 283.46">
  <polygon points="135.77 100.94 141.73 31.18 147.7 100.94 173.16 35.64 159 104.23 202.1 48.74 168.96 110.58 226.06 69.32 176.75 119.48 243.25 95.78 181.66 130.1 252.21 126.04 183.33 141.73 252.21 157.43 181.66 153.36 243.25 187.68 176.75 163.99 226.06 214.14 168.96 172.88 202.1 234.72 159 179.24 173.16 247.83 147.7 182.52 141.73 252.28 135.77 182.52 110.3 247.83 124.46 179.24 81.37 234.73 114.51 172.89 57.4 214.14 106.71 163.99 40.21 187.69 101.8 153.36 31.25 157.43 100.14 141.73 31.25 126.04 101.8 130.1 40.21 95.78 106.71 119.48 57.4 69.32 114.51 110.58 81.37 48.74 124.46 104.23 110.3 35.64 135.77 100.94" fill="#9d2324"/>
</svg>