<?xml version="1.0" encoding="UTF-8"?>
<svg id="a" data-name="图层 1" xmlns="http://www.w3.org/2000/svg" width="100mm" height="100mm" viewBox="0 0 283.46 283.46">
  <polygon points="141.73 152.44 130.46 219.64 138.66 152.03 108.82 213.03 135.91 150.78 89.56 201.32 133.54 148.74 74.9 184.28 131.85 146.17 65.83 163.78 131.02 143.31 61.88 141.73 131.02 140.15 65.83 119.68 131.85 137.29 74.9 99.19 133.54 134.73 89.56 82.15 135.91 132.69 108.82 70.43 138.66 131.43 130.46 63.83 141.73 131.02 153.01 63.82 144.81 131.43 174.64 70.43 147.56 132.69 193.9 82.15 149.93 134.73 208.56 99.19 151.61 137.29 217.64 119.68 152.45 140.15 221.59 141.73 152.45 143.31 217.64 163.78 151.61 146.17 208.56 184.28 149.93 148.74 193.91 201.32 147.56 150.78 174.65 213.03 144.81 152.03 153.01 219.64 141.73 152.44" fill="#cc261c"/>
  <path d="M150.78,79.28l-6.07,50.02-.51,4.18,1.85-3.79,21.9-44.77-19.88,45.69-1.69,3.88,2.87-3.13,34.42-37.53-32.66,39.04-2.73,3.26,3.65-2.21,43.33-26.26-42.09,28.16-3.53,2.36,4.11-1.1,48.35-12.9-47.73,14.99-4.07,1.28,4.27.1,51.58,1.18-51.58,1.18-4.27.1,4.07,1.28,47.73,14.99-48.35-12.9-4.11-1.1,3.53,2.36,42.09,28.16-43.33-26.26-3.65-2.21,2.73,3.26,32.66,39.05-34.42-37.53-2.87-3.13,1.69,3.88,19.88,45.69-21.9-44.77-1.85-3.79.51,4.18,6.07,50.02-8.34-49.71-.7-4.18-.7,4.18-8.34,49.7,6.07-50.02.51-4.18-1.85,3.79-21.9,44.77,19.88-45.69,1.69-3.88-2.87,3.13-34.42,37.53,32.66-39.05,2.73-3.26-3.65,2.21-43.33,26.26,42.09-28.16,3.53-2.36-4.11,1.1-48.35,12.9,47.73-14.99,4.07-1.28-4.27-.1-51.58-1.18,51.58-1.18,4.27-.1-4.07-1.28-47.73-14.99,48.35,12.9,4.11,1.1-3.53-2.36-42.09-28.16,43.33,26.26,3.65,2.21-2.73-3.26-32.66-39.04,34.42,37.53,2.87,3.13-1.69-3.88-19.88-45.69,21.9,44.77,1.85,3.79-.51-4.18-6.07-50.02,8.34,49.71.7,4.18.7-4.18,8.34-49.71M155.24,48.37l-13.51,80.5-13.51-80.5,9.83,81.02-35.92-73.44,32.61,74.95-55.41-60.42,52.57,62.86-70.3-42.61,68.29,45.7-79.59-21.23,78.57,24.68-82.41,1.88,82.41,1.88-78.57,24.68,79.59-21.23-68.29,45.7,70.3-42.61-52.57,62.86,55.41-60.42-32.61,74.95,35.92-73.44-9.83,81.02,13.51-80.5,13.51,80.5-9.83-81.02,35.92,73.44-32.61-74.94,55.41,60.42-52.57-62.86,70.3,42.61-68.29-45.7,79.59,21.23-78.57-24.68,82.41-1.88-82.41-1.88,78.57-24.68-79.59,21.23,68.29-45.7-70.3,42.61,52.57-62.86-55.41,60.42,32.61-74.95-35.92,73.44,9.83-81.02h0Z" fill="#cc261c"/>
</svg>