<?xml version="1.0" encoding="UTF-8"?>
<svg id="a" data-name="图层 1" xmlns="http://www.w3.org/2000/svg" width="100mm" height="100mm" viewBox="0 0 283.46 283.46">
  <polygon points="106.75 146.75 46.91 141.73 106.75 136.72 50.74 115.3 109.56 127.21 61.98 90.96 115.01 118.83 79.63 70.8 122.65 112.28 102.32 56.35 131.76 108.15 128.27 48.81 141.73 106.75 155.2 48.81 151.71 108.15 181.14 56.35 160.82 112.28 203.84 70.8 168.45 118.83 221.49 90.96 173.91 127.21 232.73 115.3 176.72 136.72 236.55 141.73 176.72 146.75 232.73 168.17 173.91 156.26 221.49 192.5 168.45 164.63 203.84 212.66 160.82 171.19 181.15 227.12 151.71 175.32 155.2 234.65 141.73 176.72 128.27 234.65 131.76 175.32 102.32 227.12 122.65 171.19 79.63 212.66 115.01 164.63 61.98 192.5 109.56 156.26 50.74 168.17 106.75 146.75" fill="#9d2324"/>
</svg>