<?xml version="1.0" encoding="UTF-8"?>
<svg id="a" data-name="图层 1" xmlns="http://www.w3.org/2000/svg" width="100mm" height="100mm" viewBox="0 0 283.46 283.46">
  <polygon points="31.2 157.45 106.31 152.07 40.13 187.64 110.64 161.48 57.35 214.14 117.54 169.34 81.34 234.71 126.42 175 110.23 247.8 136.45 177.92 141.76 252.28 146.98 177.91 173.14 247.82 157.09 174.99 202.12 234.74 165.89 169.39 226.13 214.12 172.8 161.48 243.3 187.7 177.18 152.02 252.28 157.46 178.66 141.78 252.27 126.01 177.15 131.39 243.34 95.83 172.82 121.99 226.12 69.32 165.93 114.12 202.13 48.75 157.04 108.47 173.23 35.66 147.01 105.54 141.7 31.18 136.48 105.56 110.32 35.64 126.38 108.48 81.34 48.73 117.58 114.08 57.34 69.34 110.67 121.98 40.17 95.77 106.29 131.45 31.18 126 104.8 141.68 31.2 157.45" fill="#681218"/>
</svg>