<?xml version="1.0" encoding="UTF-8"?>
<svg id="a" data-name="图层 1" xmlns="http://www.w3.org/2000/svg" width="100mm" height="100mm" viewBox="0 0 283.46 283.46">
  <polygon points="141.73 126.53 157.34 31.19 145.99 127.12 187.3 40.56 149.8 128.9 213.96 57.18 153.08 131.8 234.25 81.36 155.41 135.44 246.82 110.44 156.57 139.49 252.28 141.73 156.57 143.97 246.82 173.02 155.41 148.03 234.25 202.1 153.08 151.67 213.96 226.28 149.8 154.57 187.3 242.91 145.99 156.35 157.34 252.28 141.73 156.93 126.12 252.28 137.48 156.35 96.17 242.91 133.67 154.57 69.5 226.29 130.39 151.67 49.21 202.1 128.06 148.03 36.65 173.02 126.9 143.97 31.18 141.73 126.9 139.49 36.65 110.44 128.06 135.44 49.21 81.36 130.39 131.8 69.5 57.18 133.67 128.9 96.17 40.56 137.48 127.12 126.12 31.18 141.73 126.53" fill="#9d2324"/>
</svg>