<?xml version="1.0" encoding="UTF-8"?>
<svg id="a" data-name="图层 1" xmlns="http://www.w3.org/2000/svg" width="100mm" height="100mm" viewBox="0 0 283.46 283.46">
  <polygon points="198.5 133.46 159.93 136.29 193.92 117.57 157.7 131.34 185.07 103.61 154.16 127.2 172.75 92.78 149.6 124.22 157.91 85.89 144.44 122.68 141.72 83.53 139.04 122.69 125.6 85.88 133.84 124.22 110.71 92.77 129.33 127.17 98.38 103.62 125.78 131.34 89.57 117.53 123.53 136.32 84.95 133.45 122.76 141.71 84.96 150.01 123.54 147.18 89.55 165.9 125.76 152.13 98.39 179.85 129.31 156.27 110.71 190.68 133.87 159.24 125.55 197.57 139.02 160.78 141.75 199.93 144.43 160.78 157.86 197.58 149.62 159.24 172.75 190.69 154.14 156.29 185.08 179.84 157.69 152.13 193.9 165.93 159.94 147.15 198.51 150.01 160.7 141.76 198.5 133.46" fill="#cc261c"/>
</svg>