<?xml version="1.0" encoding="UTF-8"?>
<svg id="a" data-name="图层 1" xmlns="http://www.w3.org/2000/svg" width="100mm" height="100mm" viewBox="0 0 283.46 283.46">
  <polygon points="177.11 136.53 237.61 141.73 177.11 146.93 233.75 169.13 174.26 156.79 222.38 194.35 168.75 165.47 204.53 215.25 161.03 172.26 181.58 230.23 151.82 176.54 155.34 238.04 141.73 177.99 128.12 238.04 131.65 176.54 101.88 230.23 122.43 172.26 78.93 215.25 114.72 165.47 61.08 194.35 109.2 156.79 49.72 169.13 106.36 146.93 45.85 141.73 106.36 136.53 49.72 114.33 109.2 126.68 61.08 89.11 114.71 118 78.93 68.22 122.43 111.2 101.88 53.23 131.65 106.93 128.12 45.43 141.73 105.47 155.34 45.43 151.82 106.93 181.58 53.23 161.03 111.2 204.53 68.22 168.75 118 222.38 89.11 174.26 126.68 233.75 114.33 177.11 136.53" fill="#681218"/>
</svg>